<?xml version="1.0" encoding="UTF-8" standalone="no"?>
<svg
   role="img"
   aria-label="OsloMet - Forside"
   width="60"
   height="60"
   viewBox="0 0 60 60"
   version="1.1"
   id="svg2"
   sodipodi:docname="favico.svg"
   inkscape:version="1.3.2 (091e20e, 2023-11-25, custom)"
   inkscape:export-filename="favico.png"
   inkscape:export-xdpi="204.8"
   inkscape:export-ydpi="204.8"
   xmlns:inkscape="http://www.inkscape.org/namespaces/inkscape"
   xmlns:sodipodi="http://sodipodi.sourceforge.net/DTD/sodipodi-0.dtd"
   xmlns="http://www.w3.org/2000/svg"
   xmlns:svg="http://www.w3.org/2000/svg"
   xmlns:rdf="http://www.w3.org/1999/02/22-rdf-syntax-ns#"
   xmlns:cc="http://creativecommons.org/ns#"
   xmlns:dc="http://purl.org/dc/elements/1.1/">
  <defs
     id="defs2" />
  <sodipodi:namedview
     id="namedview2"
     pagecolor="#ffd500"
     bordercolor="#000000"
     borderopacity="0.25"
     inkscape:showpageshadow="2"
     inkscape:pageopacity="0.0"
     inkscape:pagecheckerboard="0"
     inkscape:deskcolor="#d1d1d1"
     inkscape:zoom="9.75"
     inkscape:cx="36.102564"
     inkscape:cy="34.820513"
     inkscape:window-width="1920"
     inkscape:window-height="1027"
     inkscape:window-x="1912"
     inkscape:window-y="114"
     inkscape:window-maximized="1"
     inkscape:current-layer="svg2"
     inkscape:export-bgcolor="#ffd500ff" />
  <title
     id="title1">OsloMet - Forside</title>
  <g
     stroke="none"
     stroke-width="1"
     fill="none"
     fill-rule="evenodd"
     id="g2"
     transform="matrix(0.86226844,0,0,0.86226844,4.3159322,14.684652)">
    <g
       id="logo-color"
       transform="translate(-23,-22)"
       fill="#222222">
      <g
         transform="translate(23,22)"
         id="g1">
        <polygon
           id="Fill-11"
           points="52.378588,25.3635 54.089471,23.652618 59.573294,29.136441 57.862412,30.847324 56.046529,29.031441 49.554176,35.523794 47.703,33.671735 54.195353,27.180265 " />
        <polygon
           id="Fill-13"
           points="51.278294,24.215471 48.314471,21.252529 46.755353,22.810765 49.443,25.499294 47.849471,27.091941 45.161823,24.404294 43.486235,26.080765 46.454471,29.048118 44.766529,30.736059 39.993882,25.963412 48.197118,17.760177 52.965353,22.528412 " />
        <polygon
           id="Fill-15"
           points="36.487412,13.193382 31.866529,17.836323 30.073588,16.043382 38.276823,7.8401471 40.667118,10.230441 37.004471,17.471029 44.202706,13.766029 46.605353,16.168677 38.402118,24.371029 36.609176,22.578971 41.202706,17.958971 35.073,21.0375 33.409765,19.390147 " />
        <path
           d="m 30.679853,3.7649118 c -1.394118,-1.395 -3.398824,-1.452353 -4.664118,-0.1879412 -1.312059,1.3120588 -1.23,3.2938235 0.164118,4.6879412 1.395,1.395 3.375,1.4761764 4.687941,0.1641176 1.276765,-1.2767647 1.207059,-3.27 -0.187941,-4.6641176 M 24.235147,10.209618 C 21.8325,7.8069706 21.785735,4.2219706 24.222794,1.7840294 c 2.402647,-2.40264705 6,-2.36735293 8.402647,0.035294 2.401765,2.4026471 2.437941,6 0.03529,8.4017646 -2.449412,2.450294 -6.023823,2.390294 -8.425588,-0.01147"
           id="Fill-6" />
        <polygon
           id="Fill-9"
           points="22.905529,16.356882 25.859647,13.401882 27.552882,15.095118 22.782,19.865118 14.579647,11.662765 16.395529,9.8468823 " />
        <path
           d="m 18.432265,24.450265 c -1.945588,1.944706 -4.277647,1.862647 -5.953236,0.187058 l 1.816765,-1.816764 c 0.785294,0.786176 1.733824,0.868235 2.612647,-0.01059 0.527647,-0.527648 0.726177,-1.243236 0.199412,-1.77 -0.562941,-0.562059 -1.453235,-0.304412 -2.718529,0.258529 -1.546765,0.632647 -3.445589,1.335 -4.8052946,-0.02471 -1.5582353,-1.557347 -1.2185294,-3.632641 0.3052941,-5.1547 1.7929415,-1.794706 3.9838235,-1.665 5.3673525,-0.282353 l -1.699411,1.699412 c -0.598236,-0.502941 -1.382647,-0.562941 -2.085883,0.140294 -0.516176,0.515294 -0.609705,1.148824 -0.164117,1.594412 0.433235,0.433235 1.030588,0.257647 2.273823,-0.257647 2.132647,-0.844412 3.96,-1.336765 5.44853,0.151765 1.559117,1.558235 1.102058,3.585882 -0.597353,5.285294"
           id="Fill-4" />
        <path
           d="m 1.8091765,24.197912 c 2.402647,-2.402647 6,-2.367353 8.4026475,0.03529 2.401764,2.402647 2.437058,6 0.03529,8.401765 -2.4494081,2.450298 -6.0238199,2.39118 -8.4264669,-0.01059 C -0.582,30.221735 -0.62788235,26.635853 1.8091765,24.197912 Z m 1.7929411,1.792941 c -1.3120588,1.312059 -1.23,3.292941 0.1641177,4.687941 1.395,1.395 3.375,1.476177 4.6879412,0.163235 C 9.7309412,29.565265 9.6612353,27.572912 8.2662353,26.177912 6.8721176,24.783794 4.8674118,24.725559 3.6021176,25.990853 Z"
           id="Fill-1" />
      </g>
    </g>
  </g>
  <metadata
     id="metadata2">
    <rdf:RDF>
      <cc:Work
         rdf:about="">
        <dc:title>OsloMet - Forside</dc:title>
      </cc:Work>
    </rdf:RDF>
  </metadata>
</svg>
